<svg xmlns="http://www.w3.org/2000/svg" xmlns:xlink="http://www.w3.org/1999/xlink" width="1035" height="576"><defs><circle id="A" cx="3" cy="3" r="3"/><filter x="-100.0%" y="-100.0%" width="300.0%" height="300.0%" id="B"><feGaussianBlur stdDeviation="2" in="SourceAlpha"/><feOffset dx="8"/><feComposite in2="SourceAlpha" operator="arithmetic" k2="-1" k3="1"/><feColorMatrix values="0 0 0 0 0 0 0 0 0 0 0 0 0 0 0 0 0 0 0.5 0"/></filter><linearGradient x1="50%" y1="45.0274493%" x2="50%" y2="100%" id="C"><stop stop-color="#c7c7c7" offset="0%"/><stop stop-color="#574947" offset="100%"/></linearGradient><linearGradient x1="0%" y1="50%" x2="100%" y2="50%" id="D"><stop stop-color="#aaabb1" offset="0%"/><stop stop-color="#e3e3e5" offset=".634548611%"/><stop stop-color="#b7b8bf" offset="1.57855903%"/><stop stop-color="#a6a8af" offset="2.07942708%"/><stop stop-color="#888991" offset="3.08919271%"/><stop stop-color="#c3c4ca" offset="4.3344184%"/><stop stop-color="#dbdde0" offset="5.27842882%"/><stop stop-color="#e9e9ec" offset="9.3140191%"/><stop stop-color="#eaebec" offset="94.7849392%"/><stop stop-color="#a1a3ab" offset="96.9542101%"/><stop stop-color="#ececee" offset="98.4492188%"/><stop stop-color="#ededee" offset="99.0609809%"/><stop stop-color="#929397" offset="100%"/></linearGradient><path d="M629 540v4.487c0 3.2-6.47 4.165-11.37 4.165H416.67c-5.153 0-11.67-.965-11.67-4.165V540" id="E"/><filter x="-2.5%" y="-63.6%" width="104.9%" height="227.1%" id="F"><feGaussianBlur stdDeviation="4" in="SourceAlpha"/><feOffset dy="3"/><feComposite in2="SourceAlpha" operator="arithmetic" k2="-1" k3="1"/><feColorMatrix values="0 0 0 0 0 0 0 0 0 0 0 0 0 0 0 0 0 0 0.539550781 0"/></filter></defs><g transform="translate(0 3)" fill="none" fill-rule="evenodd"><path d="M133-1.5h770c17.397 0 31.5 14.103 31.5 31.5v511.5h-833V30c0-17.397 14.103-31.5 31.5-31.5zm-3.784 27v489h778v-489h-778z" stroke="#c1c1c1" stroke-width="3" fill="#010101"/><g transform="translate(515 11)"><mask id="G" fill="#fff"><use xlink:href="#A"/></mask><use fill="#3a4044" xlink:href="#A"/><use fill="#000" filter="url(#B)" xlink:href="#A"/><ellipse fill="#fff" opacity=".822" style="mix-blend-mode:overlay" mask="url(#G)" cx="-2" cy="7" rx="8" ry="4"/></g><path d="M958.297 571.606c24.465 0 44.24-1.34 58.06-3.672 11.595-1.957 18.138-4.562 18.143-6.587V543.22c0-1.402-1.746-2.615-3.985-2.615H4.48c-2.236 0-3.98 1.213-3.98 2.615v17.44c0 5.63 33.322 10.945 76.198 10.945h881.6z" stroke-opacity=".287" stroke="#979797" fill="url(#C)"/><path d="M4 540h1027a4 4 0 0 1 4 4v16H0v-16a4 4 0 0 1 4-4z" fill="url(#D)"/><path stroke="#010101" stroke-width="3" d="M129.216 25.5h778v489h-778z"/><use fill="#d8d8d8" xlink:href="#E"/><use fill="#000" filter="url(#F)" xlink:href="#E"/></g></svg>