<svg width="312" height="630" xmlns="http://www.w3.org/2000/svg"><defs/><defs><linearGradient x1="48%" y1="99.9715197%" x2="48%" y2="-.03583616%" id="a"><stop stop-color="#747474" offset="0%"/><stop stop-color="#ADADAD" offset="2.68816%"/><stop stop-color="#FFF" offset="6.98925%"/><stop stop-color="#FFF" offset="94.62%"/><stop stop-color="#ADADAD" offset="96.77%"/><stop stop-color="#747474" offset="100%"/></linearGradient><linearGradient x1="48%" y1="99.9715197%" x2="48%" y2="-.03583616%" id="b"><stop stop-color="#747474" offset="0%"/><stop stop-color="#ADADAD" offset="2.68816%"/><stop stop-color="#FFF" offset="6.98925%"/><stop stop-color="#FFF" offset="94.62%"/><stop stop-color="#ADADAD" offset="96.77%"/><stop stop-color="#747474" offset="100%"/></linearGradient><linearGradient x1="48%" y1="99.9715197%" x2="48%" y2="-.03583616%" id="c"><stop stop-color="#747474" offset="0%"/><stop stop-color="#ADADAD" offset="2.68816%"/><stop stop-color="#FFF" offset="6.98925%"/><stop stop-color="#FFF" offset="94.62%"/><stop stop-color="#ADADAD" offset="96.77%"/><stop stop-color="#747474" offset="100%"/></linearGradient><linearGradient x1=".09317406%" y1="49.9915286%" x2="100.072696%" y2="49.9915286%" id="d"><stop stop-color="#AFAFAF" offset="0%"/><stop stop-color="#656365" offset="10.22%"/><stop stop-color="#343537" offset="32.26%"/></linearGradient><linearGradient x1=".10738255%" y1="49.9990663%" x2="99.8154362%" y2="49.9990663%" id="e"><stop stop-color="#AFAFAF" offset="0%"/><stop stop-color="#656365" offset="10.22%"/><stop stop-color="#343537" offset="32.26%"/></linearGradient><linearGradient x1="100.160068%" y1="49.9915286%" x2=".18020478%" y2="49.9915286%" id="f"><stop stop-color="#AFAFAF" offset="0%"/><stop stop-color="#656365" offset="10.22%"/><stop stop-color="#343537" offset="32.26%"/></linearGradient><linearGradient x1="-.00805369%" y1="49.9990663%" x2="99.7%" y2="49.9990663%" id="g"><stop stop-color="#343537" offset="67.74%"/><stop stop-color="#656365" offset="89.78%"/><stop stop-color="#AFAFAF" offset="100%"/></linearGradient><linearGradient x1="17.3693774%" y1="100%" x2="17.3693774%" y2="76.3623425%" id="h"><stop stop-color="#747474" offset="0%"/><stop stop-color="#525052" offset="31.2004945%"/><stop stop-color="#343537" offset="100%"/></linearGradient></defs><g fill="none" fill-rule="evenodd"><path d="M35.6470588 631.904302C17.1459695 631.904302 2 616.879698 2 598.314264V31.5900377C2 13.1203019 17.0501089-2 35.6470588-2H276.352941C294.854031-2 310 13.0246038 310 31.5900377V598.409962C310 616.879698 294.949891 632 276.352941 632H35.6470588v-.095698z"/><path d="M2 102v83c-1.1045695 0-2-.895431-2-2v-79c0-1.104569.8954305-2 2-2z" fill="url(#a)" fill-rule="nonzero" transform="translate(0 -2)"/><path d="M312 102v43c-1.104569 0-2-.895431-2-2v-39c0-1.104569.895431-2 2-2z" fill="url(#b)" fill-rule="nonzero" transform="rotate(-180 311 122.5)"/><path d="M312 185v63c-1.104569 0-2-.895431-2-2v-59c0-1.104569.895431-2 2-2z" fill="url(#c)" fill-rule="nonzero" transform="rotate(-180 311 215.5)"/><path d="M276.363292 0C293.811416 0 308 14.165907 308 31.586144v566.827712C308 615.834093 293.811416 630 276.363292 630H35.6367077C18.188584 630 4 615.834093 4 598.413856V31.586144C4 14.165907 18.188584 0 35.6367077 0H276.363292zM272 12H40c-13.254834 0-24 10.745166-24 24v558c0 13.254834 10.745166 24 24 24h232c13.254834 0 24-10.745166 24-24V36c0-13.254834-10.745166-24-24-24z" fill="#1E1F1F" fill-rule="nonzero"/><path d="M12.451949 597.557225V35.3478396C12.451949 21.3922874 23.7686366 10 37.6315789 10H35.17963C21.3166876 10 10 21.3922874 10 35.3478396V597.65216C10 611.607713 21.3166876 623 35.17963 623h2.4519489c-13.8629423-.094936-25.1796299-11.487223-25.1796299-25.442775z" fill="url(#d)" fill-rule="nonzero" transform="translate(0 -2)"/><path d="M8.01995761 598.071994V36.0201222c0-10.0637666 5.09978809-18.8932977 12.79583189-24.0201222C12.5634052 16.9369421 7 26.146238 7 36.5897694V597.502346c0 10.443532 5.5634052 19.652828 13.8157895 24.58977-7.6960438-5.126825-12.79583189-13.956356-12.79583189-24.020122z" fill="url(#e)" fill-rule="nonzero" transform="translate(0 -2)"/><path d="M299.17963 597.557225V35.3478396C299.17963 21.3922874 287.862942 10 274 10h2.451949c13.862942 0 25.17963 11.3922874 25.17963 25.3478396V597.65216c0 13.955553-11.316688 25.34784-25.17963 25.34784H274c13.957248-.094936 25.17963-11.487223 25.17963-25.442775z" fill="url(#f)" fill-rule="nonzero" transform="translate(0 -2)"/><path d="M303.795832 598.071994V36.0201222C303.795832 25.9563556 298.696044 17.1268245 291 12c8.252384 4.9369421 13.815789 14.146238 13.815789 24.5897694V597.502346c0 10.443532-5.563405 19.652828-13.815789 24.58977 7.696044-5.126825 12.795832-13.956356 12.795832-24.020122z" fill="url(#g)" fill-rule="nonzero" transform="translate(0 -2)"/><path d="M120.223684 24.4736436c0 .1997009-.098684.2995513-.296052.2995513-.197369 0-.296053-.0998504-.296053-.2995513 0-.1997008.098684-.2995513.296053-.2995513.197368-.0998504.296052.0998505.296052.2995513z" fill="#5C5478" fill-rule="nonzero"/><path d="M271.249293 624.191882H41.7166367C34.8344047 624.191882 28.565441 622.202952 24 619c4.5995114 4.261993 11.6861661 7 19.6586526 7H269.341347c7.972487 0 15.059142-2.738007 19.658653-7-4.633582 3.202952-10.868475 5.191882-17.750707 5.191882z" fill="url(#h)" fill-rule="nonzero" opacity=".5" transform="translate(0 -2)"/></g></svg>